<?xml version="1.0" standalone="no"?>
<!DOCTYPE svg PUBLIC "-//W3C//DTD SVG 20010904//EN"
 "http://www.w3.org/TR/2001/REC-SVG-20010904/DTD/svg10.dtd">
<svg version="1.0"
  xmlns="http://www.w3.org/2000/svg" width="499.000000pt" height="344.000000pt" viewBox="0 0 499.000000 344.000000" preserveAspectRatio="xMidYMid meet">

  <g transform="translate(0.000000,344.000000) scale(0.100000,-0.100000)" stroke="none">
    <path fill="#fd7502" d="M3715 3271 c-3 -11 8 -141 24 -288 17 -147 35 -326 41 -398 18 -242
26 -269 71 -248 13 6 103 69 199 140 96 72 249 182 340 246 180 126 210 151
210 172 0 20 -4 22 -760 361 -86 39 -116 42 -125 15z"/>
    <path fill="#20b2ff" d="M3424 2467 c-45 -48 -307 -349 -397 -456 l-39 -45 21 -17 c12 -10 54
-23 93 -29 40 -7 185 -34 321 -61 136 -27 261 -49 277 -49 40 0 39 23 -1 132
-17 46 -66 188 -110 317 -74 220 -91 261 -109 261 -4 0 -29 -24 -56 -53z"/>
    <path fill="#7ed958" d="M4080 2258 c-11 -18 -39 -89 -61 -158 -23 -69 -91 -255 -152 -415
-116 -307 -134 -363 -124 -389 9 -22 62 -21 183 4 138 29 404 76 625 110 208
33 239 43 239 75 0 26 -14 45 -140 190 -121 138 -221 258 -339 405 -117 144
-178 210 -197 210 -8 0 -23 -15 -34 -32z"/>
    <g fill="#b8ae9c">
      <path d="M280 1505 l0 -55 248 2 247 3 3 53 3 52 -250 0 -251 0 0 -55z"/>
      <path d="M1772 1158 l3 -403 52 -3 53 -3 2 313 3 313 70 -138 70 -138 60 3 60
3 65 127 c36 69 68 130 73 134 4 4 7 -133 7 -304 l0 -312 100 0 100 0 0 55 0
55 -45 0 -45 0 0 350 0 350 -70 0 -70 0 -70 -139 c-38 -77 -78 -154 -89 -171
l-19 -32 -88 171 -88 171 -68 0 -68 0 2 -402z"/>
      <path d="M3330 1511 l0 -50 38 -3 37 -3 0 -65 0 -65 -85 -5 c-94 -7 -133 -22
-173 -70 -35 -41 -39 -71 -35 -237 3 -132 5 -142 30 -180 42 -64 81 -77 236
-81 l132 -4 0 406 0 406 -90 0 -90 0 0 -49z m75 -476 l0 -180 -70 2 c-64 1
-72 4 -97 32 -27 30 -28 35 -28 147 0 63 5 124 10 134 18 34 61 50 125 47 l60
-2 0 -180z"/>
      <path d="M1025 1314 c-16 -8 -38 -23 -47 -31 -17 -15 -18 -14 -18 10 l0 27
-90 0 -90 0 0 -49 0 -50 38 -3 37 -3 0 -180 0 -180 -52 -3 -53 -3 0 -50 0 -49
155 0 155 0 0 50 c0 49 0 50 -32 52 -18 0 -40 1 -48 2 -12 1 -15 26 -18 150
-2 131 0 151 15 168 27 30 52 41 113 47 l55 6 3 53 3 52 -48 0 c-26 0 -61 -7
-78 -16z"/>
      <path d="M2692 1319 c-50 -15 -107 -78 -120 -132 -15 -58 -15 -249 -1 -302 7
-23 28 -57 53 -81 118 -119 320 -62 357 100 6 30 10 102 8 166 -4 104 -7 120
-31 162 -38 64 -84 90 -166 94 -37 2 -82 -1 -100 -7z m133 -104 c40 -20 51
-43 60 -128 17 -159 -19 -237 -110 -237 -91 0 -124 67 -112 230 6 86 18 113
62 135 38 19 59 19 100 0z"/>
      <path d="M1250 1272 l0 -50 96 -4 c86 -3 98 -5 115 -27 10 -13 19 -38 19 -56
l0 -33 -104 -4 c-121 -4 -146 -16 -184 -89 -42 -80 -14 -189 60 -234 29 -18
51 -20 183 -20 l150 0 0 220 c0 247 -3 260 -72 312 -34 26 -43 28 -150 31
l-113 4 0 -50z m228 -344 l-3 -73 -78 1 c-90 0 -121 19 -119 73 1 58 23 69
130 70 l73 1 -3 -72z"/>
      <path d="M280 984 l0 -235 53 3 52 3 3 178 2 177 140 0 140 0 0 55 0 55 -195
0 -195 0 0 -236z"/>
      <path d="M1550 568 c-64 -33 -85 -67 -85 -138 0 -70 20 -97 76 -106 28 -5 41
-1 64 19 79 68 -17 191 -103 131 -26 -18 -27 -13 -7 25 9 18 35 38 70 54 30
15 55 29 55 32 0 11 -28 4 -70 -17z m38 -114 c46 -32 17 -114 -41 -114 -22 0
-67 43 -67 65 0 22 45 65 67 65 10 0 29 -7 41 -16z"/>
      <path d="M367 518 c-13 -29 -34 -79 -48 -112 -13 -32 -29 -61 -36 -63 -15 -6
-18 -73 -3 -73 6 0 10 11 10 25 l0 25 105 0 105 0 0 -26 c0 -16 5 -24 13 -22
20 7 20 49 0 68 -11 9 -39 65 -63 123 -25 59 -48 107 -53 107 -4 0 -18 -24
-30 -52z m71 -80 c18 -43 32 -82 32 -88 0 -6 -31 -10 -75 -10 -41 0 -75 3 -75
7 0 20 74 183 80 176 4 -4 21 -43 38 -85z"/>
      <path d="M587 422 c-21 -43 -37 -84 -37 -91 0 -24 19 0 50 67 l32 67 36 -75
c19 -42 37 -68 39 -59 4 17 -65 169 -77 169 -4 0 -23 -35 -43 -78z"/>
      <path d="M770 480 c-24 -24 -21 -68 6 -83 11 -7 10 -13 -8 -37 -30 -41 -13
-52 18 -12 32 41 71 44 76 7 2 -14 8 -25 13 -25 6 0 10 34 10 83 l0 82 -47 3
c-37 2 -51 -1 -68 -18z m90 -40 c0 -36 -3 -40 -24 -40 -41 0 -56 11 -56 40 0
31 10 38 53 39 25 1 27 -2 27 -39z"/>
      <path d="M1047 467 c-6 -45 4 -148 14 -141 5 3 9 21 9 40 l0 34 60 0 60 0 0
-40 c0 -22 5 -40 10 -40 6 0 10 37 10 90 0 53 -4 90 -10 90 -5 0 -10 -18 -10
-40 l0 -40 -60 0 -60 0 0 34 c0 46 -16 55 -23 13z"/>
      <path d="M1304 488 c-25 -12 -44 -48 -44 -84 0 -31 50 -84 79 -84 30 0 71 18
71 31 0 7 -7 8 -17 4 -45 -19 -62 -17 -90 11 l-28 29 75 5 c73 5 75 6 72 30
-3 31 -46 70 -75 69 -12 0 -32 -5 -43 -11z m80 -24 c32 -32 20 -44 -44 -44
-64 0 -72 8 -40 40 24 24 63 26 84 4z"/>
      <path d="M1725 488 c-32 -17 -45 -39 -45 -79 0 -52 48 -94 99 -85 50 8 76 37
76 87 0 68 -70 110 -130 77z m86 -26 c45 -37 16 -122 -41 -122 -31 0 -70 39
-70 71 0 59 64 88 111 51z"/>
      <path d="M1935 428 c-41 -87 -42 -92 -32 -96 5 -2 24 28 42 65 l33 68 33 -73
c18 -40 36 -69 41 -64 9 9 -62 172 -75 172 -4 0 -23 -33 -42 -72z"/>
      <path d="M2100 435 c0 -57 3 -69 25 -90 26 -27 54 -31 88 -14 28 15 37 28 37
55 0 30 -25 47 -79 54 -41 4 -46 8 -49 33 -6 53 -22 26 -22 -38z m118 -27 c7
-7 12 -18 12 -24 0 -19 -29 -44 -51 -44 -25 0 -59 35 -59 60 0 17 7 20 43 20
24 0 48 -5 55 -12z"/>
      <path d="M2290 436 c0 -49 5 -69 21 -90 23 -29 54 -34 80 -10 16 14 20 14 44
-2 22 -14 33 -16 55 -7 20 7 32 7 39 0 16 -16 22 12 19 94 -3 83 -22 101 -26
24 -3 -74 -10 -93 -33 -100 -38 -12 -59 20 -59 92 0 35 -4 63 -10 63 -6 0 -10
-27 -10 -60 0 -47 -4 -64 -20 -80 -11 -11 -24 -20 -30 -20 -5 0 -19 9 -30 20
-16 16 -20 33 -20 80 0 33 -4 60 -10 60 -6 0 -10 -28 -10 -64z"/>
      <path d="M2600 445 c0 -74 20 -112 64 -120 19 -4 43 -2 53 4 14 7 23 7 31 -1
18 -18 23 9 20 93 -4 90 -22 98 -26 12 -2 -51 -7 -65 -25 -78 -30 -21 -44 -19
-72 10 -21 20 -25 34 -25 80 0 30 -4 55 -10 55 -5 0 -10 -25 -10 -55z"/>
      <path d="M2808 494 c-4 -4 6 -24 23 -46 l31 -38 -31 -35 c-30 -35 -39 -55 -23
-55 4 0 20 16 35 35 15 19 31 35 35 35 4 0 18 -16 31 -35 22 -33 41 -45 41
-26 0 4 -13 25 -30 46 l-29 37 31 39 c17 21 28 42 24 46 -4 5 -22 -9 -39 -30
l-30 -39 -31 37 c-17 20 -34 33 -38 29z"/>
      <path d="M3100 409 c0 -57 4 -88 10 -84 6 3 10 33 10 65 0 49 4 61 22 74 56
40 98 3 98 -84 0 -33 4 -60 10 -60 6 0 10 28 10 65 0 57 -3 69 -25 90 -25 26
-63 32 -96 15 -13 -7 -19 -7 -19 0 0 5 -4 10 -10 10 -6 0 -10 -37 -10 -91z"/>
      <path d="M3362 490 c-36 -15 -47 -57 -44 -159 4 -95 22 -120 22 -30 l0 49 26
-16 c40 -27 94 -9 117 38 16 33 17 40 3 71 -22 53 -67 70 -124 47z m88 -30
c23 -23 26 -68 6 -95 -19 -26 -83 -26 -102 0 -33 45 -2 115 51 115 14 0 34 -9
45 -20z"/>
      <path d="M3585 488 c-32 -17 -45 -39 -45 -79 0 -52 48 -94 99 -85 50 8 76 37
76 87 0 68 -70 110 -130 77z m86 -26 c45 -37 16 -122 -41 -122 -31 0 -70 39
-70 71 0 59 64 88 111 51z"/>
      <path d="M3804 488 c-50 -24 -57 -96 -15 -139 33 -32 75 -38 107 -15 24 18 13
31 -14 17 -32 -17 -51 -13 -80 17 l-27 27 75 5 c73 5 75 6 72 30 -3 31 -46 70
-75 69 -12 0 -32 -5 -43 -11z m80 -24 c32 -32 20 -44 -44 -44 -64 0 -72 8 -40
40 24 24 63 26 84 4z"/>
      <path d="M3970 416 c0 -47 5 -88 10 -91 6 -4 10 10 10 34 0 34 3 41 19 41 10
0 32 -15 48 -33 16 -19 35 -37 41 -41 23 -14 12 14 -19 49 l-32 36 33 40 c44
55 28 65 -18 11 -48 -55 -72 -56 -72 -2 0 22 -4 40 -10 40 -6 0 -10 -35 -10
-84z"/>
      <path d="M4160 409 c0 -57 4 -88 10 -84 6 3 10 35 10 70 0 53 3 66 19 75 47
25 71 -2 71 -80 0 -32 5 -62 10 -65 6 -4 10 17 10 54 0 48 4 65 20 81 44 44
80 7 80 -83 0 -36 4 -56 10 -52 14 9 13 108 -2 140 -15 33 -54 43 -88 23 -23
-13 -29 -13 -45 -2 -23 17 -57 18 -73 2 -9 -9 -12 -9 -12 0 0 7 -4 12 -10 12
-6 0 -10 -37 -10 -91z"/>
      <path d="M4505 488 c-32 -17 -45 -39 -45 -79 0 -52 48 -94 99 -85 50 8 76 37
76 87 0 68 -70 110 -130 77z m86 -26 c45 -37 16 -122 -41 -122 -31 0 -70 39
-70 71 0 59 64 88 111 51z"/>
      <path d="M4690 410 l0 -90 55 0 c42 0 60 5 75 20 24 24 25 43 5 60 -11 9 -13
16 -5 24 15 15 12 42 -6 60 -10 11 -34 16 -70 16 l-54 0 0 -90z m110 55 c19
-23 -5 -45 -51 -45 -37 0 -39 2 -39 30 0 28 2 30 39 30 22 0 44 -6 51 -15z m9
-79 c18 -22 -13 -46 -60 -46 -37 0 -39 2 -39 30 0 29 2 30 44 30 25 0 48 -6
55 -14z"/>
    </g>
  </g>
</svg>
